<svg width="206" height="61" viewBox="0 0 206 61" fill="none" xmlns="http://www.w3.org/2000/svg">
<path opacity="0.9" d="M76.4699 41V39.4453C76.9976 39.4264 77.4028 39.3416 77.6855 39.1908C77.9681 39.0212 78.166 38.7386 78.2791 38.3428C78.3922 37.9282 78.4487 37.3629 78.4487 36.6467V25.3678C78.4487 24.8967 78.4581 24.4444 78.477 24.0109C78.5147 23.5775 78.5429 23.2383 78.5618 22.9933C78.2414 23.0121 77.8739 23.031 77.4593 23.0498C77.0447 23.0498 76.7149 23.0592 76.4699 23.0781V21.2124C77.7137 21.1936 78.9575 21.1841 80.2013 21.1841C81.464 21.1653 82.7172 21.1559 83.961 21.1559C85.6759 21.1559 87.127 21.3537 88.3142 21.7495C89.5203 22.1452 90.4249 22.7671 91.028 23.6152C91.6499 24.4444 91.9514 25.5374 91.9325 26.8943C91.9137 27.6669 91.7347 28.4207 91.3954 29.1557C91.0562 29.8907 90.5191 30.5408 89.7842 31.1062C89.0492 31.6716 88.0692 32.1144 86.8443 32.4348C87.2024 32.6232 87.5416 32.8965 87.8619 33.2546C88.2012 33.6126 88.5121 34.0084 88.7948 34.4418L90.3213 36.7881C90.6982 37.3723 91.0468 37.8623 91.3672 38.258C91.6875 38.6349 92.0173 38.927 92.3566 39.1343C92.6958 39.3228 93.1009 39.4264 93.5721 39.4453V41H89.2753C88.8796 40.6796 88.5027 40.2839 88.1446 39.8127C87.8054 39.3416 87.4473 38.7951 87.0704 38.1732L85.0351 34.9224C84.7902 34.5266 84.5546 34.1591 84.3284 33.8199C84.1211 33.4619 83.8856 33.1603 83.6217 32.9154C83.3202 32.9342 83.047 32.9436 82.802 32.9436C82.557 32.9436 82.2931 32.9342 82.0105 32.9154V36.7598C82.0105 37.2875 82.001 37.768 81.9822 38.2015C81.9634 38.6349 81.9351 38.9741 81.8974 39.2191C82.1047 39.2003 82.3497 39.1908 82.6324 39.1908C82.9339 39.172 83.226 39.1626 83.5087 39.1626C83.7913 39.1437 84.0175 39.1343 84.1871 39.1343V41H76.4699ZM83.4804 31.2193C84.5357 31.2004 85.4026 31.0402 86.0811 30.7387C86.7783 30.4372 87.2966 29.9661 87.6358 29.3253C87.9939 28.6846 88.1729 27.8648 88.1729 26.866C88.1729 26.018 88.041 25.3301 87.7771 24.8024C87.5321 24.2748 87.1929 23.8696 86.7595 23.5869C86.3449 23.3042 85.8832 23.1158 85.3744 23.0215C84.8844 22.9085 84.3944 22.8519 83.9044 22.8519C83.4144 22.8519 83.0281 22.9273 82.7454 23.0781C82.4628 23.2288 82.2649 23.5021 82.1518 23.8979C82.0576 24.2748 82.0105 24.793 82.0105 25.4526V31.1345C82.2366 31.1533 82.4722 31.1722 82.7172 31.191C82.9622 31.2098 83.2166 31.2193 83.4804 31.2193ZM96.9976 48.6606C96.3192 48.6606 95.7444 48.4722 95.2732 48.0953C94.8021 47.7184 94.5665 47.2001 94.5665 46.5405C94.5665 46.0882 94.7173 45.6831 95.0188 45.325C95.3204 44.9858 95.7067 44.8068 96.1778 44.7879C96.5924 44.7691 96.9222 44.901 97.1672 45.1837C97.431 45.4852 97.5629 45.8433 97.5629 46.2578C97.5629 46.3144 97.5629 46.3709 97.5629 46.4275C97.5629 46.5028 97.5535 46.5782 97.5347 46.6536C97.5724 46.6536 97.6383 46.6536 97.7326 46.6536C97.921 46.6159 98.1189 46.4746 98.3262 46.2296C98.5523 46.0034 98.7596 45.6925 98.9481 45.2967C99.1742 44.8633 99.4098 44.3262 99.6548 43.6855C99.8998 43.0636 100.135 42.3663 100.361 41.5936L95.9234 32.4631C95.4146 31.4077 95.0659 30.5974 94.8775 30.032C94.7079 29.4667 94.5854 28.9955 94.51 28.6186L93.2097 28.6752V26.866H99.8527V28.3642H99.7961C99.08 28.4207 98.6842 28.694 98.6089 29.184C98.5335 29.6551 98.656 30.2393 98.9763 30.9366L101.944 37.523C102.208 36.7881 102.5 35.8835 102.821 34.8093C103.16 33.7351 103.537 32.6044 103.952 31.4171C104.046 31.1156 104.159 30.7858 104.291 30.4278C104.441 30.0509 104.592 29.6928 104.743 29.3536C104.894 29.0144 105.045 28.76 105.195 28.5903L103.471 28.6752V26.866H108.305V28.3642C107.683 28.5338 107.183 28.9201 106.807 29.5232C106.449 30.1074 106.109 30.8424 105.789 31.7281L102.255 41.735C101.709 43.2803 101.2 44.5618 100.729 45.5794C100.258 46.6159 99.7302 47.3886 99.146 47.8974C98.5806 48.4062 97.8645 48.6606 96.9976 48.6606ZM117.069 41C117.012 40.7173 116.975 40.4818 116.956 40.2933C116.956 40.086 116.946 39.8504 116.928 39.5866C116.287 40.2273 115.599 40.6985 114.864 41C114.148 41.3015 113.404 41.4523 112.631 41.4523C111.349 41.4523 110.36 41.1036 109.663 40.4064C108.984 39.7091 108.645 38.8516 108.645 37.834C108.645 36.9294 108.89 36.1662 109.38 35.5443C109.87 34.9035 110.511 34.3853 111.302 33.9895C112.094 33.5749 112.97 33.264 113.931 33.0567C114.892 32.8305 115.844 32.7081 116.786 32.6892V31.1345C116.786 30.588 116.72 30.0886 116.588 29.6363C116.475 29.1651 116.259 28.7976 115.938 28.5338C115.618 28.2511 115.147 28.1098 114.525 28.1098C114.11 28.1286 113.686 28.2229 113.253 28.3925C112.838 28.5432 112.508 28.7882 112.263 29.1274C112.414 29.297 112.508 29.4855 112.546 29.6928C112.584 29.8813 112.603 30.0509 112.603 30.2016C112.603 30.5408 112.471 30.8989 112.207 31.2758C111.943 31.6339 111.519 31.8035 110.935 31.7846C110.426 31.7658 110.03 31.5868 109.748 31.2475C109.484 30.9083 109.352 30.5031 109.352 30.032C109.352 29.3159 109.606 28.694 110.115 28.1663C110.643 27.6198 111.349 27.1958 112.235 26.8943C113.121 26.5739 114.11 26.4137 115.203 26.4137C116.824 26.4137 118.068 26.8377 118.935 27.6858C119.802 28.5338 120.226 29.8907 120.207 31.7564C120.207 32.4159 120.207 33.019 120.207 33.5655C120.207 34.0932 120.197 34.6303 120.178 35.1768C120.178 35.7045 120.178 36.2981 120.178 36.9577C120.178 37.2404 120.169 37.5984 120.15 38.0319C120.131 38.4465 120.103 38.8611 120.065 39.2757C120.405 39.238 120.744 39.2191 121.083 39.2191C121.441 39.2003 121.733 39.1814 121.959 39.1626V41H117.069ZM116.758 34.357C116.193 34.3947 115.637 34.4889 115.09 34.6397C114.544 34.7716 114.054 34.9601 113.62 35.2051C113.187 35.45 112.838 35.761 112.574 36.1379C112.329 36.496 112.216 36.9106 112.235 37.3817C112.254 37.9659 112.442 38.3993 112.801 38.682C113.159 38.9459 113.573 39.0778 114.044 39.0778C114.591 39.0778 115.081 38.9647 115.514 38.7386C115.967 38.5124 116.381 38.2109 116.758 37.834C116.758 37.6455 116.758 37.4477 116.758 37.2404C116.758 37.0331 116.758 36.8258 116.758 36.6185C116.758 36.3546 116.758 36.0248 116.758 35.6291C116.758 35.2333 116.758 34.8093 116.758 34.357ZM123.132 41V39.5018C123.679 39.5018 124.065 39.3887 124.291 39.1626C124.517 38.9176 124.658 38.5784 124.715 38.1449C124.772 37.7115 124.8 37.2215 124.8 36.675V31.3606C124.8 31.0214 124.809 30.6633 124.828 30.2864C124.847 29.9095 124.875 29.5232 124.913 29.1274C124.611 29.1463 124.263 29.1651 123.867 29.184C123.49 29.2028 123.179 29.2217 122.934 29.2405V27.4031C123.782 27.4031 124.479 27.3654 125.026 27.29C125.572 27.1958 125.997 27.0827 126.298 26.9508C126.6 26.8189 126.816 26.6964 126.948 26.5833H128.135C128.173 26.7906 128.192 26.9602 128.192 27.0921C128.192 27.2241 128.201 27.3654 128.22 27.5162C128.239 27.6481 128.267 27.846 128.305 28.1098C128.682 27.7894 129.115 27.5067 129.605 27.2618C130.114 26.9979 130.623 26.7906 131.132 26.6399C131.641 26.4891 132.112 26.4137 132.545 26.4137C134.241 26.4137 135.457 26.9131 136.192 27.9119C136.927 28.9107 137.294 30.5031 137.294 32.6892V36.9577C137.294 37.2592 137.285 37.6267 137.266 38.0601C137.266 38.4747 137.238 38.8799 137.181 39.2757C137.502 39.238 137.831 39.2191 138.171 39.2191C138.51 39.2003 138.792 39.1908 139.019 39.1908V41H132.15V39.5018C132.696 39.5018 133.082 39.3887 133.308 39.1626C133.553 38.9176 133.704 38.5784 133.761 38.1449C133.817 37.7115 133.846 37.2215 133.846 36.675L133.817 32.6609C133.817 31.3041 133.61 30.2958 133.195 29.6363C132.8 28.9578 132.14 28.6186 131.217 28.6186C130.67 28.6375 130.133 28.7694 129.605 29.0144C129.078 29.2594 128.635 29.5703 128.277 29.9472C128.296 30.1734 128.305 30.4089 128.305 30.6539C128.305 30.8989 128.305 31.1439 128.305 31.3889L128.277 36.9577C128.277 37.2592 128.267 37.6267 128.249 38.0601C128.249 38.4747 128.22 38.8799 128.164 39.2757C128.465 39.238 128.786 39.2191 129.125 39.2191C129.483 39.2003 129.775 39.1908 130.001 39.1908V41H123.132ZM162.386 27.5444C162.16 25.9049 161.604 24.6611 160.718 23.8131C159.832 22.9462 158.683 22.5127 157.269 22.5127C156.27 22.5127 155.375 22.7389 154.584 23.1912C153.811 23.6246 153.151 24.2277 152.605 25.0003C152.077 25.7541 151.672 26.6399 151.389 27.6575C151.107 28.6563 150.965 29.7305 150.965 30.8801C150.965 32.5573 151.229 34.0366 151.757 35.3181C152.303 36.5996 153.057 37.6078 154.018 38.3428C154.998 39.0778 156.138 39.4453 157.439 39.4453C158.645 39.4453 159.832 39.1532 161.001 38.569C162.188 37.9659 163.168 37.1179 163.94 36.0248L165.099 37.0707C164.214 38.2768 163.271 39.2003 162.273 39.841C161.274 40.4629 160.294 40.8869 159.333 41.1131C158.39 41.3392 157.533 41.4523 156.76 41.4523C155.309 41.4523 153.99 41.1979 152.803 40.6891C151.634 40.1614 150.617 39.4453 149.75 38.5407C148.902 37.6173 148.242 36.5525 147.771 35.3464C147.319 34.1215 147.093 32.8023 147.093 31.3889C147.093 30.0886 147.291 28.8071 147.686 27.5444C148.101 26.2818 148.713 25.1417 149.524 24.124C150.353 23.1064 151.389 22.296 152.633 21.693C153.877 21.0711 155.319 20.7601 156.958 20.7601C157.787 20.7601 158.654 20.892 159.559 21.1559C160.463 21.4009 161.311 21.7683 162.103 22.2583L161.99 20.958H163.94V27.5444H162.386ZM173.138 41.4523C171.8 41.4523 170.585 41.1602 169.492 40.576C168.399 39.9729 167.532 39.1343 166.891 38.0601C166.269 36.9671 165.958 35.695 165.958 34.2439C165.958 32.7175 166.279 31.3606 166.919 30.1734C167.56 28.9861 168.418 28.0627 169.492 27.4031C170.585 26.7435 171.781 26.4137 173.082 26.4137C174.42 26.4137 175.626 26.7152 176.7 27.3183C177.774 27.9213 178.622 28.76 179.244 29.8341C179.885 30.9083 180.205 32.1804 180.205 33.6503C180.205 35.1956 179.894 36.5619 179.272 37.7492C178.669 38.9176 177.831 39.8316 176.757 40.4912C175.701 41.1319 174.495 41.4523 173.138 41.4523ZM173.28 39.7279C174.128 39.7279 174.778 39.4641 175.23 38.9364C175.682 38.4088 175.993 37.7398 176.163 36.9294C176.351 36.1002 176.446 35.2522 176.446 34.3853C176.446 33.6503 176.38 32.9059 176.248 32.1521C176.135 31.3983 175.946 30.7199 175.682 30.1168C175.419 29.4949 175.07 29.0049 174.637 28.6469C174.203 28.27 173.675 28.0815 173.054 28.0815C172.224 28.1004 171.565 28.3736 171.075 28.9013C170.585 29.429 170.227 30.098 170.001 30.9083C169.793 31.7187 169.69 32.5761 169.69 33.4807C169.69 34.4984 169.812 35.4972 170.057 36.4771C170.302 37.4382 170.688 38.2297 171.216 38.8516C171.744 39.4547 172.432 39.7468 173.28 39.7279ZM181.796 39.5018C182.342 39.5018 182.729 39.3887 182.955 39.1626C183.181 38.9176 183.322 38.5784 183.379 38.1449C183.435 37.7115 183.464 37.2215 183.464 36.675V31.3606C183.464 31.0214 183.473 30.6633 183.492 30.2864C183.511 29.9095 183.539 29.5232 183.577 29.1274C183.256 29.1463 182.908 29.1651 182.531 29.184C182.154 29.184 181.843 29.1934 181.598 29.2122V27.4031H182.644C183.398 27.4031 184.029 27.3183 184.538 27.1487C185.047 26.9602 185.405 26.7718 185.612 26.5833H186.799C186.837 26.8095 186.865 27.1675 186.884 27.6575C186.903 28.1475 186.912 28.6375 186.912 29.1274C187.346 28.5621 187.798 28.0815 188.269 27.6858C188.74 27.2712 189.221 26.9602 189.711 26.7529C190.22 26.5268 190.738 26.4137 191.266 26.4137C191.869 26.4137 192.396 26.5833 192.849 26.9225C193.32 27.2618 193.555 27.8083 193.555 28.5621C193.555 28.8071 193.489 29.0709 193.357 29.3536C193.244 29.6363 193.056 29.8718 192.792 30.0603C192.547 30.2487 192.208 30.343 191.774 30.343C191.379 30.343 191.002 30.2205 190.644 29.9755C190.305 29.7116 190.125 29.297 190.107 28.7317C189.711 28.7128 189.296 28.8542 188.863 29.1557C188.448 29.4572 188.071 29.8247 187.732 30.2582C187.393 30.6916 187.129 31.1345 186.941 31.5868L186.969 36.9577C186.969 37.2592 186.959 37.6267 186.941 38.0601C186.922 38.4747 186.894 38.8799 186.856 39.2757C187.157 39.238 187.478 39.2191 187.817 39.2191C188.156 39.2003 188.439 39.1908 188.665 39.1908V41H181.796V39.5018ZM199.911 41.4523C199.383 41.4523 198.865 41.3863 198.356 41.2544C197.866 41.1225 197.414 40.8775 196.999 40.5194C196.603 40.1614 196.283 39.6337 196.038 38.9364C195.793 38.2203 195.67 37.278 195.67 36.1096L195.727 28.8165L193.72 28.8448V26.866C194.285 26.8472 194.832 26.6587 195.359 26.3006C195.887 25.9237 196.349 25.4338 196.745 24.8307C197.14 24.2277 197.404 23.5869 197.536 22.9085H199.26L199.232 26.866H203.218V28.6752L199.232 28.76L199.204 36.0248C199.204 36.5902 199.251 37.1179 199.345 37.6078C199.458 38.079 199.647 38.4559 199.911 38.7386C200.193 39.0212 200.57 39.1626 201.041 39.1626C201.399 39.1626 201.805 39.0495 202.257 38.8234C202.728 38.5972 203.199 38.1449 203.67 37.4665L204.829 38.5124C204.358 39.2285 203.868 39.7845 203.359 40.1802C202.869 40.576 202.389 40.8681 201.918 41.0565C201.465 41.245 201.06 41.3581 200.702 41.3958C200.344 41.4334 200.08 41.4523 199.911 41.4523Z" fill="#23273B"/>
<path d="M30.5 0L38.0789 4.68868L46.9895 4.84177L50.8304 12.8836L58.2438 17.8298L57.1272 26.6716L60.6896 34.8406L54.97 41.6751L53.5504 50.4733L45.0438 53.1306L39.0928 59.7645L30.5 57.401L21.9072 59.7645L15.9562 53.1306L7.44964 50.4733L6.02999 41.6751L0.310446 34.8406L3.87281 26.6716L2.75622 17.8298L10.1696 12.8836L14.0105 4.84177L22.9211 4.68868L30.5 0Z" fill="#393D4F"/>
<path d="M16.6122 45.0329L16.1293 43.2308C16.5431 43.1004 16.8743 42.9531 17.123 42.7889C17.3898 42.6199 17.5522 42.352 17.61 41.9853C17.6861 41.6138 17.6265 41.0639 17.4314 40.3358L14.6293 29.8781C14.4976 29.3866 14.3799 28.9109 14.2761 28.4509C14.1906 27.9861 14.1252 27.6329 14.08 27.3914C13.7937 27.4876 13.4345 27.6034 13.0025 27.7386C12.5656 27.8557 12.2495 27.9501 12.0541 28.022L11.4908 25.9195C12.7783 25.555 14.0683 25.1996 15.3607 24.8533C16.6532 24.507 17.9431 24.1516 19.2307 23.7871C20.8277 23.3397 22.269 23.1486 23.5547 23.2138C24.8403 23.279 25.9163 23.6541 26.7826 24.3389C27.649 25.0237 28.2591 26.0992 28.6129 27.5652C28.7995 28.3346 28.8035 29.1139 28.6248 29.9032C28.4643 30.6876 28.0998 31.4388 27.5313 32.157C26.981 32.8702 26.2103 33.5254 25.2193 34.1227C25.6042 34.1756 26.0043 34.322 26.4198 34.5619C26.8534 34.7969 27.2374 35.0647 27.5715 35.3653L29.367 36.9328C29.9333 37.4444 30.42 37.8408 30.827 38.1219C31.234 38.4031 31.6166 38.5932 31.9748 38.6923C32.3282 38.7732 32.7075 38.7691 33.1129 38.68L33.5958 40.4822L29.0905 41.6893C28.6994 41.5405 28.2815 41.2915 27.8368 40.9425C27.4054 40.5703 26.9296 40.1417 26.4095 39.6568L23.511 36.9216C23.1768 36.621 22.8845 36.3676 22.6342 36.1615C22.4021 35.9506 22.1706 35.7785 21.9398 35.6452C21.6486 35.7233 21.4028 35.7891 21.2026 35.8428C21.0024 35.8964 20.7748 35.9574 20.52 36.0257L21.3028 38.9473C21.4394 39.457 21.5595 39.9418 21.6633 40.4018C21.767 40.8617 21.8324 41.2149 21.8594 41.4613C22.0547 41.3894 22.3071 41.312 22.6166 41.2291C22.9212 41.128 23.2191 41.0384 23.5103 40.9604C23.8149 40.8593 24.0309 40.7916 24.1583 40.7575L24.7217 42.86L16.6122 45.0329ZM21.3038 33.7085C22.3232 33.4354 23.1033 33.0703 23.6442 32.6132C24.1802 32.1379 24.5042 31.5633 24.6163 30.8895C24.7417 30.1925 24.6801 29.3799 24.4313 28.4515C24.1972 27.5777 23.8778 26.9317 23.473 26.5134C23.0634 26.0768 22.6176 25.7964 22.1355 25.6719C21.6667 25.5244 21.2157 25.4794 20.7824 25.5369C20.3442 25.5763 19.9886 25.6326 19.7155 25.7057C19.3333 25.8082 19.0178 25.9415 18.7691 26.1057C18.5205 26.2698 18.3648 26.5262 18.3021 26.8746C18.2394 27.2231 18.2934 27.7159 18.4641 28.353L19.9639 33.9505C20.169 33.9151 20.3857 33.8863 20.6139 33.8641C20.8372 33.8238 21.0672 33.7719 21.3038 33.7085ZM45.2582 23.427C44.6167 21.9795 43.8022 20.9784 42.8146 20.4236C41.8452 19.8639 40.7209 19.7457 39.4418 20.0689C38.4953 20.3225 37.7256 20.7629 37.1327 21.39C36.5398 22.0171 36.1043 22.7581 35.8261 23.6131C35.5661 24.4631 35.4422 25.3841 35.4543 26.3758C35.4846 27.3627 35.6315 28.3477 35.8949 29.3306C36.3143 30.8961 36.9059 32.2301 37.6696 33.3327C38.4466 34.4122 39.3555 35.1831 40.3964 35.6456C41.4373 36.1081 42.5676 36.1759 43.7872 35.8491C44.934 35.5418 45.9937 34.9457 46.9662 34.0608C47.9338 33.1577 48.6585 32.0758 49.1401 30.8152L50.7726 31.6654C50.2075 33.124 49.5188 34.3036 48.7065 35.2041C47.8894 36.0864 47.0368 36.7636 46.1487 37.2357C45.2789 37.7028 44.4708 38.0364 43.7245 38.2364C42.3229 38.612 40.9828 38.7077 39.7043 38.5235C38.4209 38.3211 37.2435 37.8952 36.172 37.2458C35.1139 36.5733 34.2012 35.7155 33.434 34.6725C32.68 33.6063 32.1202 32.3906 31.7544 31.0254C31.4227 29.7876 31.2937 28.5052 31.3674 27.1783C31.441 25.8514 31.7375 24.5916 32.2569 23.3988C32.7896 22.1831 33.5786 21.123 34.6239 20.2185C35.6644 19.2959 36.9764 18.6224 38.5601 18.1981C39.27 18.0079 40.0754 17.9189 40.9761 17.9312C41.8902 17.9204 42.7789 18.0334 43.6423 18.2703L43.2258 17.1528L45.3283 16.5894L47.033 22.9514L45.2582 23.427Z" fill="white"/>
</svg>
